solid exported
	facet normal 0.864416832482975 0.0035100089719122415 0.5027635821707033
		outer loop
			vertex -1.970898768503742e-16 0.6344567751070995 1.6557852847012622
			vertex -1.970898768503742e-16 0.011590108525305325 1.6601337850014786
			vertex 0.965616886030849 8.516273096976082e-19 1.2198464457619662e-16
		endloop
	endfacet
	facet normal 0.864416832482975 0.003510008971912179 0.5027635821707033
		outer loop
			vertex 0.965616886030849 8.516273096976082e-19 1.2198464457619662e-16
			vertex 0.965616886030849 0.6228666665817942 -0.004348500300216185
			vertex -1.970898768503742e-16 0.6344567751070995 1.6557852847012622
		endloop
	endfacet
	facet normal 1 0 0
		outer loop
			vertex 0.965616886030849 0.6228666665817942 -0.004348500300216185
			vertex 0.965616886030849 8.516273096976082e-19 1.2198464457619662e-16
			vertex 0.965616886030849 -0.011590108525305325 -1.6601337850014786
		endloop
	endfacet
	facet normal 1 0 0
		outer loop
			vertex 0.965616886030849 -0.011590108525305325 -1.6601337850014786
			vertex 0.965616886030849 0.611276558056489 -1.664482285301695
			vertex 0.965616886030849 0.6228666665817942 -0.004348500300216185
		endloop
	endfacet
	facet normal 0 -0.006981260297962102 -0.9999756307053949
		outer loop
			vertex 0.965616886030849 0.611276558056489 -1.664482285301695
			vertex 0.965616886030849 -0.011590108525305325 -1.6601337850014786
			vertex -0.965616886030849 -0.011590108525305325 -1.6601337850014786
		endloop
	endfacet
	facet normal 0 -0.006981260297962102 -0.9999756307053949
		outer loop
			vertex -0.965616886030849 -0.011590108525305325 -1.6601337850014786
			vertex -0.965616886030849 0.611276558056489 -1.664482285301695
			vertex 0.965616886030849 0.611276558056489 -1.664482285301695
		endloop
	endfacet
	facet normal -1 0 0
		outer loop
			vertex -0.965616886030849 0.611276558056489 -1.664482285301695
			vertex -0.965616886030849 -0.011590108525305325 -1.6601337850014786
			vertex -0.965616886030849 -8.516273096976082e-19 -1.2198464457619662e-16
		endloop
	endfacet
	facet normal -1 0 0
		outer loop
			vertex -0.965616886030849 -8.516273096976082e-19 -1.2198464457619662e-16
			vertex -0.965616886030849 0.6228666665817942 -0.00434850030021643
			vertex -0.965616886030849 0.611276558056489 -1.664482285301695
		endloop
	endfacet
	facet normal -0.8644168324829752 0.003510008971912177 0.502763582170703
		outer loop
			vertex -0.965616886030849 0.6228666665817942 -0.00434850030021643
			vertex -0.965616886030849 -8.516273096976082e-19 -1.2198464457619662e-16
			vertex -1.970898768503742e-16 0.011590108525305325 1.6601337850014786
		endloop
	endfacet
	facet normal -0.8644168324829752 0.0035100089719122397 0.5027635821707032
		outer loop
			vertex -1.970898768503742e-16 0.011590108525305325 1.6601337850014786
			vertex -1.970898768503742e-16 0.6344567751070995 1.6557852847012622
			vertex -0.965616886030849 0.6228666665817942 -0.00434850030021643
		endloop
	endfacet
	facet normal 1.0821108025726878e-18 0.9999756307053949 -0.006981260297961953
		outer loop
			vertex -0.965616886030849 0.6228666665817942 -0.00434850030021643
			vertex -1.970898768503742e-16 0.6344567751070995 1.6557852847012622
			vertex 0.965616886030849 0.6228666665817942 -0.004348500300216185
		endloop
	endfacet
	facet normal 1.0821108025726874e-18 0.9999756307053947 -0.0069812602979619515
		outer loop
			vertex 0.965616886030849 0.6228666665817942 -0.004348500300216185
			vertex 0.965616886030849 0.611276558056489 -1.664482285301695
			vertex -0.965616886030849 0.6228666665817942 -0.00434850030021643
		endloop
	endfacet
	facet normal 0 0.9999756307053947 -0.006981260297961952
		outer loop
			vertex 0.965616886030849 0.611276558056489 -1.664482285301695
			vertex -0.965616886030849 0.611276558056489 -1.664482285301695
			vertex -0.965616886030849 0.6228666665817942 -0.00434850030021643
		endloop
	endfacet
	facet normal 1.2013843282118049e-34 -0.9999756307053947 0.006981260297961975
		outer loop
			vertex -0.965616886030849 -8.516273096976082e-19 -1.2198464457619662e-16
			vertex 0.965616886030849 8.516273096976082e-19 1.2198464457619662e-16
			vertex -1.970898768503742e-16 0.011590108525305325 1.6601337850014786
		endloop
	endfacet
	facet normal 0 -0.9999756307053947 0.006981260297961974
		outer loop
			vertex -0.965616886030849 -0.011590108525305325 -1.6601337850014786
			vertex 0.965616886030849 -0.011590108525305325 -1.6601337850014786
			vertex 0.965616886030849 8.516273096976082e-19 1.2198464457619662e-16
		endloop
	endfacet
	facet normal 1.201384328211805e-34 -0.9999756307053949 0.006981260297961977
		outer loop
			vertex 0.965616886030849 8.516273096976082e-19 1.2198464457619662e-16
			vertex -0.965616886030849 -8.516273096976082e-19 -1.2198464457619662e-16
			vertex -0.965616886030849 -0.011590108525305325 -1.6601337850014786
		endloop
	endfacet
endsolid exported
